<svg width="80" height="17" viewBox="0 0 80 17" fill="none" xmlns="http://www.w3.org/2000/svg">
<path d="M8 0.5L9.79611 6.02786H15.6085L10.9062 9.44427L12.7023 14.9721L8 11.5557L3.29772 14.9721L5.09383 9.44427L0.391548 6.02786H6.20389L8 0.5Z" fill="#F4B740"/>
<path d="M24 0.5L25.7961 6.02786H31.6085L26.9062 9.44427L28.7023 14.9721L24 11.5557L19.2977 14.9721L21.0938 9.44427L16.3915 6.02786H22.2039L24 0.5Z" fill="#F4B740"/>
<path d="M40 0.5L41.7961 6.02786H47.6085L42.9062 9.44427L44.7023 14.9721L40 11.5557L35.2977 14.9721L37.0938 9.44427L32.3915 6.02786H38.2039L40 0.5Z" fill="#F4B740"/>
<path d="M56 0.5L57.7961 6.02786H63.6085L58.9062 9.44427L60.7023 14.9721L56 11.5557L51.2977 14.9721L53.0938 9.44427L48.3915 6.02786H54.2039L56 0.5Z" fill="#F4B740"/>
<path d="M72 2.11803L73.3206 6.18237L73.4328 6.52786H73.7961H78.0696L74.6123 9.03976L74.3184 9.25329L74.4306 9.59878L75.7512 13.6631L72.2939 11.1512L72 10.9377L71.7061 11.1512L68.2488 13.6631L69.5694 9.59878L69.6816 9.25329L69.3877 9.03976L65.9304 6.52786H70.2039H70.5672L70.6794 6.18237L72 2.11803Z" stroke="#F4B740"/>
</svg>
