<svg width="16" height="16" viewBox="0 0 16 16" fill="none" xmlns="http://www.w3.org/2000/svg">
<path d="M12.1268 11.8333H5.02683C4.36683 11.8333 3.73349 11.5533 3.28682 11.0667C2.84016 10.58 2.6135 9.92664 2.66683 9.26664L3.22016 2.62665C3.24016 2.41998 3.16683 2.21998 3.02683 2.06665C2.88683 1.91332 2.69349 1.83331 2.48683 1.83331H1.3335C1.06016 1.83331 0.833496 1.60665 0.833496 1.33331C0.833496 1.05998 1.06016 0.833313 1.3335 0.833313H2.4935C2.98017 0.833313 3.44016 1.03998 3.76683 1.39331C3.94683 1.59331 4.08016 1.82665 4.15349 2.08665H12.4802C13.1535 2.08665 13.7735 2.35331 14.2268 2.83331C14.6735 3.31998 14.9002 3.95331 14.8468 4.62665L14.4868 9.62665C14.4135 10.8466 13.3468 11.8333 12.1268 11.8333ZM4.18683 3.07998L3.66683 9.34664C3.6335 9.73331 3.76016 10.1 4.02016 10.3866C4.28016 10.6733 4.64016 10.8266 5.02683 10.8266H12.1268C12.8202 10.8266 13.4468 10.24 13.5002 9.54665L13.8602 4.54665C13.8868 4.15332 13.7602 3.77999 13.5002 3.50665C13.2402 3.22665 12.8802 3.0733 12.4868 3.0733H4.18683V3.07998Z" fill="white"/>
<path d="M10.8333 15.1667C10.1 15.1667 9.5 14.5667 9.5 13.8333C9.5 13.1 10.1 12.5 10.8333 12.5C11.5667 12.5 12.1667 13.1 12.1667 13.8333C12.1667 14.5667 11.5667 15.1667 10.8333 15.1667ZM10.8333 13.5C10.6467 13.5 10.5 13.6467 10.5 13.8333C10.5 14.02 10.6467 14.1667 10.8333 14.1667C11.02 14.1667 11.1667 14.02 11.1667 13.8333C11.1667 13.6467 11.02 13.5 10.8333 13.5Z" fill="white"/>
<path d="M5.49984 15.1667C4.7665 15.1667 4.1665 14.5667 4.1665 13.8333C4.1665 13.1 4.7665 12.5 5.49984 12.5C6.23317 12.5 6.83317 13.1 6.83317 13.8333C6.83317 14.5667 6.23317 15.1667 5.49984 15.1667ZM5.49984 13.5C5.31317 13.5 5.1665 13.6467 5.1665 13.8333C5.1665 14.02 5.31317 14.1667 5.49984 14.1667C5.6865 14.1667 5.83317 14.02 5.83317 13.8333C5.83317 13.6467 5.6865 13.5 5.49984 13.5Z" fill="white"/>
<path d="M14 5.83331H6C5.72667 5.83331 5.5 5.60665 5.5 5.33331C5.5 5.05998 5.72667 4.83331 6 4.83331H14C14.2733 4.83331 14.5 5.05998 14.5 5.33331C14.5 5.60665 14.2733 5.83331 14 5.83331Z" fill="white"/>
</svg>
