<svg width="0" height="0" class="hidden">
  <symbol fill="none" xmlns="http://www.w3.org/2000/svg" viewBox="0 0 24 24" id="add">
    <path d="M18 12.75H6C5.59 12.75 5.25 12.41 5.25 12C5.25 11.59 5.59 11.25 6 11.25H18C18.41 11.25 18.75 11.59 18.75 12C18.75 12.41 18.41 12.75 18 12.75Z" fill="#353535"></path>
    <path d="M12 18.75C11.59 18.75 11.25 18.41 11.25 18V6C11.25 5.59 11.59 5.25 12 5.25C12.41 5.25 12.75 5.59 12.75 6V18C12.75 18.41 12.41 18.75 12 18.75Z" fill="#353535"></path>
  </symbol>
  <symbol fill="none" xmlns="http://www.w3.org/2000/svg" viewBox="0 0 24 24" id="arrow-down">
    <path d="M12 16.8C11.3 16.8 10.6 16.53 10.07 16L3.55002 9.48001C3.26002 9.19001 3.26002 8.71001 3.55002 8.42001C3.84002 8.13001 4.32002 8.13001 4.61002 8.42001L11.13 14.94C11.61 15.42 12.39 15.42 12.87 14.94L19.39 8.42001C19.68 8.13001 20.16 8.13001 20.45 8.42001C20.74 8.71001 20.74 9.19001 20.45 9.48001L13.93 16C13.4 16.53 12.7 16.8 12 16.8Z" fill="#353535"></path>
  </symbol>
  <symbol fill="none" xmlns="http://www.w3.org/2000/svg" viewBox="0 0 24 24" id="arrow-left">
    <path d="M15 20.67C14.81 20.67 14.62 20.6 14.47 20.45L7.95003 13.93C6.89003 12.87 6.89003 11.13 7.95003 10.07L14.47 3.55002C14.76 3.26002 15.24 3.26002 15.53 3.55002C15.82 3.84002 15.82 4.32002 15.53 4.61002L9.01003 11.13C8.53003 11.61 8.53003 12.39 9.01003 12.87L15.53 19.39C15.82 19.68 15.82 20.16 15.53 20.45C15.38 20.59 15.19 20.67 15 20.67Z" fill="white"></path>
  </symbol>
  <symbol fill="none" xmlns="http://www.w3.org/2000/svg" viewBox="0 0 24 24" id="arrow-right">
    <path d="M14.4301 18.82C14.2401 18.82 14.0501 18.75 13.9001 18.6C13.6101 18.31 13.6101 17.83 13.9001 17.54L19.4401 12L13.9001 6.46C13.6101 6.17 13.6101 5.69 13.9001 5.4C14.1901 5.11 14.6701 5.11 14.9601 5.4L21.0301 11.47C21.3201 11.76 21.3201 12.24 21.0301 12.53L14.9601 18.6C14.8101 18.75 14.6201 18.82 14.4301 18.82Z" fill="#353535"></path>
    <path d="M20.33 12.75H3.5C3.09 12.75 2.75 12.41 2.75 12C2.75 11.59 3.09 11.25 3.5 11.25H20.33C20.74 11.25 21.08 11.59 21.08 12C21.08 12.41 20.74 12.75 20.33 12.75Z" fill="#353535"></path>
  </symbol>
  <symbol fill="none" xmlns="http://www.w3.org/2000/svg" viewBox="0 0 24 24" id="arrow-right1">
    <path d="M8.9101 20.67C8.7201 20.67 8.5301 20.6 8.3801 20.45C8.0901 20.16 8.0901 19.68 8.3801 19.39L14.9001 12.87C15.3801 12.39 15.3801 11.61 14.9001 11.13L8.3801 4.61002C8.0901 4.32002 8.0901 3.84002 8.3801 3.55002C8.6701 3.26002 9.1501 3.26002 9.4401 3.55002L15.9601 10.07C16.4701 10.58 16.7601 11.27 16.7601 12C16.7601 12.73 16.4801 13.42 15.9601 13.93L9.4401 20.45C9.2901 20.59 9.1001 20.67 8.9101 20.67Z" fill="white"></path>
  </symbol>
  <symbol fill="none" xmlns="http://www.w3.org/2000/svg" viewBox="0 0 24 24" id="arrow-up">
    <path d="M19.92 15.8C19.73 15.8 19.54 15.73 19.39 15.58L12.87 9.05996C12.39 8.57996 11.61 8.57996 11.13 9.05996L4.61002 15.58C4.32002 15.87 3.84002 15.87 3.55002 15.58C3.26002 15.29 3.26002 14.81 3.55002 14.52L10.07 7.99996C11.13 6.93996 12.86 6.93996 13.93 7.99996L20.45 14.52C20.74 14.81 20.74 15.29 20.45 15.58C20.3 15.72 20.11 15.8 19.92 15.8Z" fill="#353535"></path>
  </symbol>
  <symbol fill="none" xmlns="http://www.w3.org/2000/svg" viewBox="0 0 24 24" id="box">
    <path d="M11.9998 13.3C11.8698 13.3 11.7398 13.27 11.6198 13.2L2.78985 8.09002C2.42985 7.88002 2.30983 7.41999 2.51983 7.05999C2.72983 6.69999 3.17983 6.57997 3.54983 6.78997L11.9998 11.68L20.3998 6.82C20.7598 6.61 21.2198 6.74002 21.4298 7.09002C21.6398 7.45002 21.5098 7.90999 21.1598 8.11999L12.3899 13.2C12.2599 13.26 12.1298 13.3 11.9998 13.3Z" fill="#353535"></path>
    <path d="M12 22.36C11.59 22.36 11.25 22.02 11.25 21.61V12.54C11.25 12.13 11.59 11.79 12 11.79C12.41 11.79 12.75 12.13 12.75 12.54V21.61C12.75 22.02 12.41 22.36 12 22.36Z" fill="#353535"></path>
    <path d="M12.0001 22.75C11.1201 22.75 10.2501 22.56 9.56012 22.18L4.22012 19.21C2.77012 18.41 1.64014 16.48 1.64014 14.82V9.16998C1.64014 7.50998 2.77012 5.59002 4.22012 4.78002L9.56012 1.82C10.9301 1.06 13.0701 1.06 14.4401 1.82L19.7801 4.78997C21.2301 5.58997 22.3601 7.51999 22.3601 9.17999V14.83C22.3601 16.49 21.2301 18.41 19.7801 19.22L14.4401 22.18C13.7501 22.56 12.8801 22.75 12.0001 22.75ZM12.0001 2.74999C11.3701 2.74999 10.7501 2.88 10.2901 3.13L4.95013 6.09997C3.99013 6.63997 3.14014 8.06999 3.14014 9.17999V14.83C3.14014 15.93 3.99013 17.37 4.95013 17.91L10.2901 20.88C11.2001 21.39 12.8001 21.39 13.7101 20.88L19.0501 17.91C20.0101 17.37 20.8601 15.94 20.8601 14.83V9.17999C20.8601 8.07999 20.0101 6.63997 19.0501 6.09997L13.7101 3.13C13.2501 2.88 12.6301 2.74999 12.0001 2.74999Z" fill="#353535"></path>
    <path d="M17.0002 13.99C16.5902 13.99 16.2502 13.65 16.2502 13.24V10.0201L7.13018 4.76007C6.77018 4.55007 6.65016 4.09005 6.86016 3.74005C7.07016 3.38005 7.52018 3.26003 7.88018 3.47003L17.3702 8.95007C17.6002 9.08007 17.7502 9.33003 17.7502 9.60003V13.2601C17.7502 13.6501 17.4102 13.99 17.0002 13.99Z" fill="#353535"></path>
  </symbol>
  <symbol fill="none" xmlns="http://www.w3.org/2000/svg" viewBox="0 0 24 24" id="calendar">
    <path d="M8 5.75C7.59 5.75 7.25 5.41 7.25 5V2C7.25 1.59 7.59 1.25 8 1.25C8.41 1.25 8.75 1.59 8.75 2V5C8.75 5.41 8.41 5.75 8 5.75Z" fill="#353535"></path>
    <path d="M16 5.75C15.59 5.75 15.25 5.41 15.25 5V2C15.25 1.59 15.59 1.25 16 1.25C16.41 1.25 16.75 1.59 16.75 2V5C16.75 5.41 16.41 5.75 16 5.75Z" fill="#353535"></path>
    <path d="M8.5 14.5001C8.37 14.5001 8.24 14.4701 8.12 14.4201C7.99 14.3701 7.89 14.3001 7.79 14.2101C7.61 14.0201 7.5 13.7701 7.5 13.5001C7.5 13.3701 7.53 13.2401 7.58 13.1201C7.63 13.0001 7.7 12.8901 7.79 12.7901C7.89 12.7001 7.99 12.6301 8.12 12.5801C8.48 12.4301 8.93 12.5101 9.21 12.7901C9.39 12.9801 9.5 13.2401 9.5 13.5001C9.5 13.5601 9.49 13.6301 9.48 13.7001C9.47 13.7601 9.45 13.8201 9.42 13.8801C9.4 13.9401 9.37 14.0001 9.33 14.0601C9.3 14.1101 9.25 14.1601 9.21 14.2101C9.02 14.3901 8.76 14.5001 8.5 14.5001Z" fill="#353535"></path>
    <path d="M12 14.5C11.87 14.5 11.74 14.47 11.62 14.42C11.49 14.37 11.39 14.3 11.29 14.21C11.11 14.02 11 13.77 11 13.5C11 13.37 11.03 13.24 11.08 13.12C11.13 13 11.2 12.89 11.29 12.79C11.39 12.7 11.49 12.63 11.62 12.58C11.98 12.42 12.43 12.51 12.71 12.79C12.89 12.98 13 13.24 13 13.5C13 13.56 12.99 13.63 12.98 13.7C12.97 13.76 12.95 13.82 12.92 13.88C12.9 13.94 12.87 14 12.83 14.06C12.8 14.11 12.75 14.16 12.71 14.21C12.52 14.39 12.26 14.5 12 14.5Z" fill="#353535"></path>
    <path d="M15.5 14.5C15.37 14.5 15.24 14.47 15.12 14.42C14.99 14.37 14.89 14.3 14.79 14.21C14.75 14.16 14.71 14.11 14.67 14.06C14.63 14 14.6 13.94 14.58 13.88C14.55 13.82 14.53 13.76 14.52 13.7C14.51 13.63 14.5 13.56 14.5 13.5C14.5 13.24 14.61 12.98 14.79 12.79C14.89 12.7 14.99 12.63 15.12 12.58C15.49 12.42 15.93 12.51 16.21 12.79C16.39 12.98 16.5 13.24 16.5 13.5C16.5 13.56 16.49 13.63 16.48 13.7C16.47 13.76 16.45 13.82 16.42 13.88C16.4 13.94 16.37 14 16.33 14.06C16.3 14.11 16.25 14.16 16.21 14.21C16.02 14.39 15.76 14.5 15.5 14.5Z" fill="#353535"></path>
    <path d="M8.5 17.9999C8.37 17.9999 8.24 17.97 8.12 17.92C8 17.87 7.89 17.7999 7.79 17.7099C7.61 17.5199 7.5 17.2599 7.5 16.9999C7.5 16.8699 7.53 16.7399 7.58 16.6199C7.63 16.4899 7.7 16.38 7.79 16.29C8.16 15.92 8.84 15.92 9.21 16.29C9.39 16.48 9.5 16.7399 9.5 16.9999C9.5 17.2599 9.39 17.5199 9.21 17.7099C9.02 17.8899 8.76 17.9999 8.5 17.9999Z" fill="#353535"></path>
    <path d="M12 17.9999C11.74 17.9999 11.48 17.8899 11.29 17.7099C11.11 17.5199 11 17.2599 11 16.9999C11 16.8699 11.03 16.7399 11.08 16.6199C11.13 16.4899 11.2 16.38 11.29 16.29C11.66 15.92 12.34 15.92 12.71 16.29C12.8 16.38 12.87 16.4899 12.92 16.6199C12.97 16.7399 13 16.8699 13 16.9999C13 17.2599 12.89 17.5199 12.71 17.7099C12.52 17.8899 12.26 17.9999 12 17.9999Z" fill="#353535"></path>
    <path d="M15.5 18C15.24 18 14.98 17.89 14.79 17.71C14.7 17.62 14.63 17.51 14.58 17.38C14.53 17.26 14.5 17.13 14.5 17C14.5 16.87 14.53 16.74 14.58 16.62C14.63 16.49 14.7 16.38 14.79 16.29C15.02 16.06 15.37 15.95 15.69 16.02C15.76 16.03 15.82 16.05 15.88 16.08C15.94 16.1 16 16.13 16.06 16.17C16.11 16.2 16.16 16.25 16.21 16.29C16.39 16.48 16.5 16.74 16.5 17C16.5 17.26 16.39 17.52 16.21 17.71C16.02 17.89 15.76 18 15.5 18Z" fill="#353535"></path>
    <path d="M20.5 9.83997H3.5C3.09 9.83997 2.75 9.49997 2.75 9.08997C2.75 8.67997 3.09 8.33997 3.5 8.33997H20.5C20.91 8.33997 21.25 8.67997 21.25 9.08997C21.25 9.49997 20.91 9.83997 20.5 9.83997Z" fill="#353535"></path>
    <path d="M16 22.75H8C4.35 22.75 2.25 20.65 2.25 17V8.5C2.25 4.85 4.35 2.75 8 2.75H16C19.65 2.75 21.75 4.85 21.75 8.5V17C21.75 20.65 19.65 22.75 16 22.75ZM8 4.25C5.14 4.25 3.75 5.64 3.75 8.5V17C3.75 19.86 5.14 21.25 8 21.25H16C18.86 21.25 20.25 19.86 20.25 17V8.5C20.25 5.64 18.86 4.25 16 4.25H8Z" fill="#353535"></path>
  </symbol>
  <symbol fill="none" xmlns="http://www.w3.org/2000/svg" viewBox="0 0 24 24" id="call-calling">
    <path d="M17.45 22.75C16.32 22.75 15.13 22.48 13.9 21.96C12.7 21.45 11.49 20.75 10.31 19.9C9.14 19.04 8.01 18.08 6.94 17.03C5.88 15.96 4.92 14.83 4.07 13.67C3.21 12.47 2.52 11.27 2.03 10.11C1.51 8.87 1.25 7.67 1.25 6.54C1.25 5.76 1.39 5.02 1.66 4.33C1.94 3.62 2.39 2.96 3 2.39C3.77 1.63 4.65 1.25 5.59 1.25C5.98 1.25 6.38 1.34 6.72 1.5C7.11 1.68 7.44 1.95 7.68 2.31L10 5.58C10.21 5.87 10.37 6.15 10.48 6.43C10.61 6.73 10.68 7.03 10.68 7.32C10.68 7.7 10.57 8.07 10.36 8.42C10.21 8.69 9.98 8.98 9.69 9.27L9.01 9.98C9.02 10.01 9.03 10.03 9.04 10.05C9.16 10.26 9.4 10.62 9.86 11.16C10.35 11.72 10.81 12.23 11.27 12.7C11.86 13.28 12.35 13.74 12.81 14.12C13.38 14.6 13.75 14.84 13.97 14.95L13.95 15L14.68 14.28C14.99 13.97 15.29 13.74 15.58 13.59C16.13 13.25 16.83 13.19 17.53 13.48C17.79 13.59 18.07 13.74 18.37 13.95L21.69 16.31C22.06 16.56 22.33 16.88 22.49 17.26C22.64 17.64 22.71 17.99 22.71 18.34C22.71 18.82 22.6 19.3 22.39 19.75C22.18 20.2 21.92 20.59 21.59 20.95C21.02 21.58 20.4 22.03 19.68 22.32C18.99 22.6 18.24 22.75 17.45 22.75ZM5.59 2.75C5.04 2.75 4.53 2.99 4.04 3.47C3.58 3.9 3.26 4.37 3.06 4.88C2.85 5.4 2.75 5.95 2.75 6.54C2.75 7.47 2.97 8.48 3.41 9.52C3.86 10.58 4.49 11.68 5.29 12.78C6.09 13.88 7 14.95 8 15.96C9 16.95 10.08 17.87 11.19 18.68C12.27 19.47 13.38 20.11 14.48 20.57C16.19 21.3 17.79 21.47 19.11 20.92C19.62 20.71 20.07 20.39 20.48 19.93C20.71 19.68 20.89 19.41 21.04 19.09C21.16 18.84 21.22 18.58 21.22 18.32C21.22 18.16 21.19 18 21.11 17.82C21.08 17.76 21.02 17.65 20.83 17.52L17.51 15.16C17.31 15.02 17.13 14.92 16.96 14.85C16.74 14.76 16.65 14.67 16.31 14.88C16.11 14.98 15.93 15.13 15.73 15.33L14.97 16.08C14.58 16.46 13.98 16.55 13.52 16.38L13.25 16.26C12.84 16.04 12.36 15.7 11.83 15.25C11.35 14.84 10.83 14.36 10.2 13.74C9.71 13.24 9.22 12.71 8.71 12.12C8.24 11.57 7.9 11.1 7.69 10.71L7.57 10.41C7.51 10.18 7.49 10.05 7.49 9.91C7.49 9.55 7.62 9.23 7.87 8.98L8.62 8.2C8.82 8 8.97 7.81 9.07 7.64C9.15 7.51 9.18 7.4 9.18 7.3C9.18 7.22 9.15 7.1 9.1 6.98C9.03 6.82 8.92 6.64 8.78 6.45L6.46 3.17C6.36 3.03 6.24 2.93 6.09 2.86C5.93 2.79 5.76 2.75 5.59 2.75ZM13.95 15.01L13.79 15.69L14.06 14.99C14.01 14.98 13.97 14.99 13.95 15.01Z" fill="#353535"></path>
    <path d="M18.5 9.75C18.09 9.75 17.75 9.41 17.75 9C17.75 8.64 17.39 7.89 16.79 7.25C16.2 6.62 15.55 6.25 15 6.25C14.59 6.25 14.25 5.91 14.25 5.5C14.25 5.09 14.59 4.75 15 4.75C15.97 4.75 16.99 5.27 17.88 6.22C18.71 7.11 19.25 8.2 19.25 9C19.25 9.41 18.91 9.75 18.5 9.75Z" fill="#353535"></path>
    <path d="M22 9.75C21.59 9.75 21.25 9.41 21.25 9C21.25 5.55 18.45 2.75 15 2.75C14.59 2.75 14.25 2.41 14.25 2C14.25 1.59 14.59 1.25 15 1.25C19.27 1.25 22.75 4.73 22.75 9C22.75 9.41 22.41 9.75 22 9.75Z" fill="#353535"></path>
  </symbol>
  <symbol fill="none" xmlns="http://www.w3.org/2000/svg" viewBox="0 0 24 24" id="clock">
    <path d="M12 22.75C6.07 22.75 1.25 17.93 1.25 12C1.25 6.07 6.07 1.25 12 1.25C17.93 1.25 22.75 6.07 22.75 12C22.75 17.93 17.93 22.75 12 22.75ZM12 2.75C6.9 2.75 2.75 6.9 2.75 12C2.75 17.1 6.9 21.25 12 21.25C17.1 21.25 21.25 17.1 21.25 12C21.25 6.9 17.1 2.75 12 2.75Z" fill="#353535"></path>
    <path d="M15.71 15.93C15.58 15.93 15.45 15.9 15.33 15.82L12.23 13.97C11.46 13.51 10.89 12.5 10.89 11.61V7.51001C10.89 7.10001 11.23 6.76001 11.64 6.76001C12.05 6.76001 12.39 7.10001 12.39 7.51001V11.61C12.39 11.97 12.69 12.5 13 12.68L16.1 14.53C16.46 14.74 16.57 15.2 16.36 15.56C16.21 15.8 15.96 15.93 15.71 15.93Z" fill="#353535"></path>
  </symbol>
  <symbol fill="none" xmlns="http://www.w3.org/2000/svg" viewBox="0 0 24 24" id="close-circle">
    <path d="M12 22.75C6.07 22.75 1.25 17.93 1.25 12C1.25 6.07 6.07 1.25 12 1.25C17.93 1.25 22.75 6.07 22.75 12C22.75 17.93 17.93 22.75 12 22.75ZM12 2.75C6.9 2.75 2.75 6.9 2.75 12C2.75 17.1 6.9 21.25 12 21.25C17.1 21.25 21.25 17.1 21.25 12C21.25 6.9 17.1 2.75 12 2.75Z" fill="#353535"></path>
    <path d="M9.16999 15.58C8.97999 15.58 8.78999 15.51 8.63999 15.36C8.34999 15.07 8.34999 14.59 8.63999 14.3L14.3 8.63999C14.59 8.34999 15.07 8.34999 15.36 8.63999C15.65 8.92999 15.65 9.40998 15.36 9.69998L9.69998 15.36C9.55998 15.51 9.35999 15.58 9.16999 15.58Z" fill="#353535"></path>
    <path d="M14.83 15.58C14.64 15.58 14.45 15.51 14.3 15.36L8.63999 9.69998C8.34999 9.40998 8.34999 8.92999 8.63999 8.63999C8.92999 8.34999 9.40998 8.34999 9.69998 8.63999L15.36 14.3C15.65 14.59 15.65 15.07 15.36 15.36C15.21 15.51 15.02 15.58 14.83 15.58Z" fill="#353535"></path>
  </symbol>
  <symbol fill="none" xmlns="http://www.w3.org/2000/svg" viewBox="0 0 24 24" id="close-square">
    <path d="M9.17 15.58C8.98 15.58 8.79 15.51 8.64 15.36C8.35 15.07 8.35 14.59 8.64 14.3L14.3 8.63999C14.59 8.34999 15.07 8.34999 15.36 8.63999C15.65 8.92999 15.65 9.40998 15.36 9.69998L9.7 15.36C9.56 15.51 9.36 15.58 9.17 15.58Z" fill="#353535"></path>
    <path d="M14.83 15.58C14.64 15.58 14.45 15.51 14.3 15.36L8.64 9.69998C8.35 9.40998 8.35 8.92999 8.64 8.63999C8.93 8.34999 9.41 8.34999 9.7 8.63999L15.36 14.3C15.65 14.59 15.65 15.07 15.36 15.36C15.21 15.51 15.02 15.58 14.83 15.58Z" fill="#353535"></path>
    <path d="M15 22.75H9C3.57 22.75 1.25 20.43 1.25 15V9C1.25 3.57 3.57 1.25 9 1.25H15C20.43 1.25 22.75 3.57 22.75 9V15C22.75 20.43 20.43 22.75 15 22.75ZM9 2.75C4.39 2.75 2.75 4.39 2.75 9V15C2.75 19.61 4.39 21.25 9 21.25H15C19.61 21.25 21.25 19.61 21.25 15V9C21.25 4.39 19.61 2.75 15 2.75H9Z" fill="#353535"></path>
  </symbol>
  <symbol fill="none" xmlns="http://www.w3.org/2000/svg" viewBox="0 0 24 24" id="diagram">
    <path d="M22 22.75H5C2.93 22.75 1.25 21.07 1.25 19V2C1.25 1.59 1.59 1.25 2 1.25C2.41 1.25 2.75 1.59 2.75 2V19C2.75 20.24 3.76 21.25 5 21.25H22C22.41 21.25 22.75 21.59 22.75 22C22.75 22.41 22.41 22.75 22 22.75Z" fill="#353535"></path>
    <path d="M4.99982 17.7501C4.82982 17.7501 4.64982 17.6901 4.50982 17.5701C4.19982 17.3001 4.15982 16.8301 4.42982 16.5101L9.01982 11.1501C9.51982 10.5701 10.2398 10.2201 10.9998 10.1901C11.7598 10.1701 12.5098 10.4501 13.0498 10.9901L13.9998 11.9401C14.2498 12.1901 14.5798 12.3101 14.9298 12.3101C15.2798 12.3001 15.5998 12.1401 15.8298 11.8701L20.4198 6.51008C20.6898 6.20008 21.1598 6.16006 21.4798 6.43006C21.7898 6.70006 21.8298 7.17006 21.5598 7.49006L16.9698 12.8501C16.4698 13.4301 15.7498 13.7801 14.9898 13.8101C14.2298 13.8301 13.4798 13.5501 12.9398 13.0101L11.9998 12.0601C11.7498 11.8101 11.4198 11.6801 11.0698 11.6901C10.7198 11.7001 10.3998 11.8601 10.1698 12.1301L5.57982 17.4901C5.41982 17.6601 5.20982 17.7501 4.99982 17.7501Z" fill="#353535"></path>
  </symbol>
  <symbol fill="none" xmlns="http://www.w3.org/2000/svg" viewBox="0 0 24 24" id="diagram-white">
    <path d="M22 22.75H5C2.93 22.75 1.25 21.07 1.25 19V2C1.25 1.59 1.59 1.25 2 1.25C2.41 1.25 2.75 1.59 2.75 2V19C2.75 20.24 3.76 21.25 5 21.25H22C22.41 21.25 22.75 21.59 22.75 22C22.75 22.41 22.41 22.75 22 22.75Z" fill="white"></path>
    <path d="M4.99982 17.7501C4.82982 17.7501 4.64982 17.6901 4.50982 17.5701C4.19982 17.3001 4.15982 16.8301 4.42982 16.5101L9.01982 11.1501C9.51982 10.5701 10.2398 10.2201 10.9998 10.1901C11.7598 10.1701 12.5098 10.4501 13.0498 10.9901L13.9998 11.9401C14.2498 12.1901 14.5798 12.3101 14.9298 12.3101C15.2798 12.3001 15.5998 12.1401 15.8298 11.8701L20.4198 6.51008C20.6898 6.20008 21.1598 6.16006 21.4798 6.43006C21.7898 6.70006 21.8298 7.17006 21.5598 7.49006L16.9698 12.8501C16.4698 13.4301 15.7498 13.7801 14.9898 13.8101C14.2298 13.8301 13.4798 13.5501 12.9398 13.0101L11.9998 12.0601C11.7498 11.8101 11.4198 11.6801 11.0698 11.6901C10.7198 11.7001 10.3998 11.8601 10.1698 12.1301L5.57982 17.4901C5.41982 17.6601 5.20982 17.7501 4.99982 17.7501Z" fill="white"></path>
  </symbol>
  <symbol fill="none" xmlns="http://www.w3.org/2000/svg" viewBox="0 0 24 24" id="edit">
    <path d="M15 22.75H9C3.57 22.75 1.25 20.43 1.25 15V9C1.25 3.57 3.57 1.25 9 1.25H11C11.41 1.25 11.75 1.59 11.75 2C11.75 2.41 11.41 2.75 11 2.75H9C4.39 2.75 2.75 4.39 2.75 9V15C2.75 19.61 4.39 21.25 9 21.25H15C19.61 21.25 21.25 19.61 21.25 15V13C21.25 12.59 21.59 12.25 22 12.25C22.41 12.25 22.75 12.59 22.75 13V15C22.75 20.43 20.43 22.75 15 22.75Z" fill="#353535"></path>
    <path d="M8.50002 17.6901C7.89002 17.6901 7.33002 17.4701 6.92002 17.0701C6.43002 16.5801 6.22002 15.8701 6.33002 15.1201L6.76002 12.1101C6.84002 11.5301 7.22002 10.7801 7.63002 10.3701L15.51 2.49006C17.5 0.500059 19.52 0.500059 21.51 2.49006C22.6 3.58006 23.09 4.69006 22.99 5.80006C22.9 6.70006 22.42 7.58006 21.51 8.48006L13.63 16.3601C13.22 16.7701 12.47 17.1501 11.89 17.2301L8.88002 17.6601C8.75002 17.6901 8.62002 17.6901 8.50002 17.6901ZM16.57 3.55006L8.69002 11.4301C8.50002 11.6201 8.28002 12.0601 8.24002 12.3201L7.81002 15.3301C7.77002 15.6201 7.83002 15.8601 7.98002 16.0101C8.13002 16.1601 8.37002 16.2201 8.66002 16.1801L11.67 15.7501C11.93 15.7101 12.38 15.4901 12.56 15.3001L20.44 7.42006C21.09 6.77006 21.43 6.19006 21.48 5.65006C21.54 5.00006 21.2 4.31006 20.44 3.54006C18.84 1.94006 17.74 2.39006 16.57 3.55006Z" fill="#353535"></path>
    <path d="M19.85 9.83003C19.78 9.83003 19.71 9.82003 19.65 9.80003C17.02 9.06003 14.93 6.97003 14.19 4.34003C14.08 3.94003 14.31 3.53003 14.71 3.41003C15.11 3.30003 15.52 3.53003 15.63 3.93003C16.23 6.06003 17.92 7.75003 20.05 8.35003C20.45 8.46003 20.68 8.88003 20.57 9.28003C20.48 9.62003 20.18 9.83003 19.85 9.83003Z" fill="#353535"></path>
  </symbol>
  <symbol fill="none" xmlns="http://www.w3.org/2000/svg" viewBox="0 0 24 24" id="gallery">
    <path d="M15 22.75H9C3.57 22.75 1.25 20.43 1.25 15V9C1.25 3.57 3.57 1.25 9 1.25H15C20.43 1.25 22.75 3.57 22.75 9V15C22.75 20.43 20.43 22.75 15 22.75ZM9 2.75C4.39 2.75 2.75 4.39 2.75 9V15C2.75 19.61 4.39 21.25 9 21.25H15C19.61 21.25 21.25 19.61 21.25 15V9C21.25 4.39 19.61 2.75 15 2.75H9Z" fill="#353535"></path>
    <path d="M9 10.75C7.48 10.75 6.25 9.52 6.25 8C6.25 6.48 7.48 5.25 9 5.25C10.52 5.25 11.75 6.48 11.75 8C11.75 9.52 10.52 10.75 9 10.75ZM9 6.75C8.31 6.75 7.75 7.31 7.75 8C7.75 8.69 8.31 9.25 9 9.25C9.69 9.25 10.25 8.69 10.25 8C10.25 7.31 9.69 6.75 9 6.75Z" fill="#353535"></path>
    <path d="M2.67002 19.7001C2.43002 19.7001 2.19002 19.5801 2.05002 19.3701C1.82002 19.0301 1.91002 18.5601 2.26002 18.3301L7.19002 15.0201C8.27002 14.2901 9.76002 14.3801 10.74 15.2101L11.07 15.5001C11.57 15.9301 12.42 15.9301 12.91 15.5001L17.07 11.9301C18.13 11.0201 19.8 11.0201 20.87 11.9301L22.5 13.3301C22.81 13.6001 22.85 14.0701 22.58 14.3901C22.31 14.7001 21.84 14.7401 21.52 14.4701L19.89 13.0701C19.39 12.6401 18.54 12.6401 18.04 13.0701L13.88 16.6401C12.82 17.5501 11.15 17.5501 10.08 16.6401L9.75002 16.3501C9.29002 15.9601 8.53002 15.9201 8.02002 16.2701L3.09002 19.5801C2.96002 19.6601 2.81002 19.7001 2.67002 19.7001Z" fill="#353535"></path>
  </symbol>
  <symbol fill="none" xmlns="http://www.w3.org/2000/svg" viewBox="0 0 24 24" id="gps">
    <path d="M12 20.25C7.45 20.25 3.75 16.55 3.75 12C3.75 7.45 7.45 3.75 12 3.75C16.55 3.75 20.25 7.45 20.25 12C20.25 16.55 16.55 20.25 12 20.25ZM12 5.25C8.28 5.25 5.25 8.28 5.25 12C5.25 15.72 8.28 18.75 12 18.75C15.72 18.75 18.75 15.72 18.75 12C18.75 8.28 15.72 5.25 12 5.25Z" fill="#353535"></path>
    <path d="M12 15.75C9.93 15.75 8.25 14.07 8.25 12C8.25 9.93 9.93 8.25 12 8.25C14.07 8.25 15.75 9.93 15.75 12C15.75 14.07 14.07 15.75 12 15.75ZM12 9.75C10.76 9.75 9.75 10.76 9.75 12C9.75 13.24 10.76 14.25 12 14.25C13.24 14.25 14.25 13.24 14.25 12C14.25 10.76 13.24 9.75 12 9.75Z" fill="#353535"></path>
    <path d="M12 4.75C11.59 4.75 11.25 4.41 11.25 4V2C11.25 1.59 11.59 1.25 12 1.25C12.41 1.25 12.75 1.59 12.75 2V4C12.75 4.41 12.41 4.75 12 4.75Z" fill="#353535"></path>
    <path d="M4 12.75H2C1.59 12.75 1.25 12.41 1.25 12C1.25 11.59 1.59 11.25 2 11.25H4C4.41 11.25 4.75 11.59 4.75 12C4.75 12.41 4.41 12.75 4 12.75Z" fill="#353535"></path>
    <path d="M12 22.75C11.59 22.75 11.25 22.41 11.25 22V20C11.25 19.59 11.59 19.25 12 19.25C12.41 19.25 12.75 19.59 12.75 20V22C12.75 22.41 12.41 22.75 12 22.75Z" fill="#353535"></path>
    <path d="M22 12.75H20C19.59 12.75 19.25 12.41 19.25 12C19.25 11.59 19.59 11.25 20 11.25H22C22.41 11.25 22.75 11.59 22.75 12C22.75 12.41 22.41 12.75 22 12.75Z" fill="#353535"></path>
  </symbol>
  <symbol fill="none" xmlns="http://www.w3.org/2000/svg" viewBox="0 0 24 24" id="heart">
    <path d="M12 21.65C11.69 21.65 11.39 21.61 11.14 21.52C7.32 20.21 1.25 15.56 1.25 8.69001C1.25 5.19001 4.08 2.35001 7.56 2.35001C9.25 2.35001 10.83 3.01001 12 4.19001C13.17 3.01001 14.75 2.35001 16.44 2.35001C19.92 2.35001 22.75 5.20001 22.75 8.69001C22.75 15.57 16.68 20.21 12.86 21.52C12.61 21.61 12.31 21.65 12 21.65ZM7.56 3.85001C4.91 3.85001 2.75 6.02001 2.75 8.69001C2.75 15.52 9.32 19.32 11.63 20.11C11.81 20.17 12.2 20.17 12.38 20.11C14.68 19.32 21.26 15.53 21.26 8.69001C21.26 6.02001 19.1 3.85001 16.45 3.85001C14.93 3.85001 13.52 4.56001 12.61 5.79001C12.33 6.17001 11.69 6.17001 11.41 5.79001C10.48 4.55001 9.08 3.85001 7.56 3.85001Z" fill="#353535"></path>
  </symbol>
  <symbol fill="none" xmlns="http://www.w3.org/2000/svg" viewBox="0 0 24 24" id="home">
    <path d="M12 18.7499C11.59 18.7499 11.25 18.4099 11.25 17.9999V14.9999C11.25 14.5899 11.59 14.2499 12 14.2499C12.41 14.2499 12.75 14.5899 12.75 14.9999V17.9999C12.75 18.4099 12.41 18.7499 12 18.7499Z" fill="#353535"></path>
    <path d="M17.6 22.5599H6.40002C4.58002 22.5599 2.92002 21.1599 2.62002 19.3699L1.29002 11.3999C1.07002 10.1599 1.68002 8.56994 2.67002 7.77994L9.60002 2.22994C10.94 1.14994 13.05 1.15994 14.4 2.23994L21.33 7.77994C22.31 8.56994 22.91 10.1599 22.71 11.3999L21.38 19.3599C21.08 21.1299 19.38 22.5599 17.6 22.5599ZM11.99 2.92994C11.46 2.92994 10.93 3.08994 10.54 3.39994L3.61002 8.95994C3.05002 9.40994 2.65002 10.4499 2.77002 11.1599L4.10002 19.1199C4.28002 20.1699 5.33002 21.0599 6.40002 21.0599H17.6C18.67 21.0599 19.72 20.1699 19.9 19.1099L21.23 11.1499C21.34 10.4499 20.94 9.38994 20.39 8.94994L13.46 3.40994C13.06 3.08994 12.52 2.92994 11.99 2.92994Z" fill="#353535"></path>
  </symbol>
  <symbol fill="none" xmlns="http://www.w3.org/2000/svg" viewBox="0 0 24 24" id="home-hashtag">
    <path d="M17.79 22.74H6.21C3.47 22.74 1.25 20.51 1.25 17.77V10.36C1.25 8.99996 2.09 7.28996 3.17 6.44996L8.56 2.24996C10.18 0.989964 12.77 0.929964 14.45 2.10996L20.63 6.43996C21.82 7.26996 22.75 9.04996 22.75 10.5V17.78C22.75 20.51 20.53 22.74 17.79 22.74ZM9.48 3.42996L4.09 7.62996C3.38 8.18996 2.75 9.45996 2.75 10.36V17.77C2.75 19.68 4.3 21.24 6.21 21.24H17.79C19.7 21.24 21.25 19.69 21.25 17.78V10.5C21.25 9.53996 20.56 8.20996 19.77 7.66996L13.59 3.33996C12.45 2.53996 10.57 2.57996 9.48 3.42996Z" fill="#353535"></path>
    <path d="M13.5 18.75H10.5C8.43 18.75 6.75 17.07 6.75 15V12C6.75 9.93 8.43 8.25 10.5 8.25H13.5C15.57 8.25 17.25 9.93 17.25 12V15C17.25 17.07 15.57 18.75 13.5 18.75ZM10.5 9.75C9.26 9.75 8.25 10.76 8.25 12V15C8.25 16.24 9.26 17.25 10.5 17.25H13.5C14.74 17.25 15.75 16.24 15.75 15V12C15.75 10.76 14.74 9.75 13.5 9.75H10.5Z" fill="#353535"></path>
    <path d="M12 18.75C11.59 18.75 11.25 18.41 11.25 18V9C11.25 8.59 11.59 8.25 12 8.25C12.41 8.25 12.75 8.59 12.75 9V18C12.75 18.41 12.41 18.75 12 18.75Z" fill="#353535"></path>
    <path d="M16.5 14.25H7.5C7.09 14.25 6.75 13.91 6.75 13.5C6.75 13.09 7.09 12.75 7.5 12.75H16.5C16.91 12.75 17.25 13.09 17.25 13.5C17.25 13.91 16.91 14.25 16.5 14.25Z" fill="#353535"></path>
  </symbol>
  <symbol fill="none" xmlns="http://www.w3.org/2000/svg" viewBox="0 0 24 24" id="home-wifi">
    <path d="M17.5998 22.56H6.39983C4.57983 22.56 2.91983 21.1599 2.61983 19.3599L1.28984 11.4C1.07984 10.16 1.67985 8.56999 2.66985 7.77999L9.59984 2.22994C10.9398 1.14994 13.0498 1.15995 14.3998 2.23995L21.3298 7.77999C22.3098 8.56999 22.9098 10.16 22.7098 11.4L21.3798 19.3599C21.0798 21.1299 19.3898 22.56 17.5998 22.56ZM11.9898 2.9399C11.4598 2.9399 10.9298 3.09999 10.5398 3.40999L3.60982 8.95992C3.03982 9.41992 2.64982 10.44 2.76982 11.16L4.09984 19.12C4.27984 20.17 5.32983 21.06 6.39983 21.06H17.5998C18.6698 21.06 19.7198 20.1699 19.8998 19.1099L21.2298 11.15C21.3498 10.43 20.9499 9.39991 20.3899 8.94991L13.4598 3.40999C13.0598 3.09999 12.5298 2.9399 11.9898 2.9399Z" fill="#353535"></path>
    <path d="M14.12 15.13C13.93 15.13 13.7501 15.06 13.6001 14.92C12.6301 13.99 11.3701 13.99 10.3901 14.92C10.0901 15.21 9.62004 15.2 9.33004 14.9C9.04004 14.6 9.05006 14.1299 9.35006 13.8399C10.9001 12.3499 13.0701 12.3499 14.6301 13.8399C14.9301 14.1299 14.94 14.6 14.65 14.9C14.52 15.05 14.32 15.13 14.12 15.13Z" fill="#353535"></path>
    <path d="M16.2399 13.01C16.0499 13.01 15.8599 12.9401 15.7199 12.8001C15.2499 12.3401 14.7199 11.97 14.1599 11.7C12.7599 11.03 11.2299 11.03 9.83988 11.7C9.27988 11.97 8.75988 12.3401 8.27988 12.8001C7.98988 13.0901 7.50988 13.0901 7.21988 12.7901C6.92988 12.4901 6.93989 12.02 7.22989 11.73C7.81989 11.15 8.47989 10.69 9.18989 10.35C10.9999 9.48001 12.9999 9.48001 14.7999 10.35C15.5099 10.69 16.1699 11.15 16.7599 11.73C17.0599 12.02 17.0599 12.4901 16.7699 12.7901C16.6299 12.9301 16.4399 13.01 16.2399 13.01Z" fill="#353535"></path>
    <path d="M12.0001 17.5C11.7401 17.5 11.4901 17.4 11.2901 17.21C10.9001 16.82 10.9001 16.1901 11.2901 15.8001C11.6801 15.4101 12.32 15.4101 12.71 15.8001C13.1 16.1901 13.1 16.82 12.71 17.21C12.51 17.4 12.2601 17.5 12.0001 17.5Z" fill="#353535"></path>
  </symbol>
  <symbol fill="none" xmlns="http://www.w3.org/2000/svg" viewBox="0 0 24 24" id="home-wifi-white">
    <path d="M17.5998 22.56H6.39983C4.57983 22.56 2.91983 21.1599 2.61983 19.3599L1.28984 11.4C1.07984 10.16 1.67985 8.56999 2.66985 7.77999L9.59984 2.22994C10.9398 1.14994 13.0498 1.15995 14.3998 2.23995L21.3298 7.77999C22.3098 8.56999 22.9098 10.16 22.7098 11.4L21.3798 19.3599C21.0798 21.1299 19.3898 22.56 17.5998 22.56ZM11.9898 2.9399C11.4598 2.9399 10.9298 3.09999 10.5398 3.40999L3.60982 8.95992C3.03982 9.41992 2.64982 10.44 2.76982 11.16L4.09984 19.12C4.27984 20.17 5.32983 21.06 6.39983 21.06H17.5998C18.6698 21.06 19.7198 20.1699 19.8998 19.1099L21.2298 11.15C21.3498 10.43 20.9499 9.39991 20.3899 8.94991L13.4598 3.40999C13.0598 3.09999 12.5298 2.9399 11.9898 2.9399Z" fill="white"></path>
    <path d="M14.12 15.13C13.93 15.13 13.7501 15.06 13.6001 14.92C12.6301 13.99 11.3701 13.99 10.3901 14.92C10.0901 15.21 9.62004 15.2 9.33004 14.9C9.04004 14.6 9.05006 14.1299 9.35006 13.8399C10.9001 12.3499 13.0701 12.3499 14.6301 13.8399C14.9301 14.1299 14.94 14.6 14.65 14.9C14.52 15.05 14.32 15.13 14.12 15.13Z" fill="white"></path>
    <path d="M16.2399 13.01C16.0499 13.01 15.8599 12.9401 15.7199 12.8001C15.2499 12.3401 14.7199 11.97 14.1599 11.7C12.7599 11.03 11.2299 11.03 9.83988 11.7C9.27988 11.97 8.75988 12.3401 8.27988 12.8001C7.98988 13.0901 7.50988 13.0901 7.21988 12.7901C6.92988 12.4901 6.93989 12.02 7.22989 11.73C7.81989 11.15 8.47989 10.69 9.18989 10.35C10.9999 9.48001 12.9999 9.48001 14.7999 10.35C15.5099 10.69 16.1699 11.15 16.7599 11.73C17.0599 12.02 17.0599 12.4901 16.7699 12.7901C16.6299 12.9301 16.4399 13.01 16.2399 13.01Z" fill="white"></path>
    <path d="M12.0001 17.5C11.7401 17.5 11.4901 17.4 11.2901 17.21C10.9001 16.82 10.9001 16.1901 11.2901 15.8001C11.6801 15.4101 12.32 15.4101 12.71 15.8001C13.1 16.1901 13.1 16.82 12.71 17.21C12.51 17.4 12.2601 17.5 12.0001 17.5Z" fill="white"></path>
  </symbol>
  <symbol fill="none" xmlns="http://www.w3.org/2000/svg" viewBox="0 0 24 24" id="Instagram">
    <path d="M7.68043 1.43994C4.24002 1.43994 1.44043 4.23953 1.44043 7.67994V16.3199C1.44043 19.7603 4.24002 22.5599 7.68043 22.5599H16.3204C19.7608 22.5599 22.5604 19.7603 22.5604 16.3199V7.67994C22.5604 4.23953 19.7608 1.43994 16.3204 1.43994H7.68043ZM7.68043 2.39994H16.3204C19.2419 2.39994 21.6004 4.75843 21.6004 7.67994V16.3199C21.6004 19.2415 19.2419 21.5999 16.3204 21.5999H7.68043C4.75892 21.5999 2.40043 19.2415 2.40043 16.3199V7.67994C2.40043 4.75843 4.75892 2.39994 7.68043 2.39994ZM17.7604 5.27994C17.5058 5.27994 17.2616 5.38108 17.0816 5.56112C16.9016 5.74115 16.8004 5.98533 16.8004 6.23994C16.8004 6.49455 16.9016 6.73873 17.0816 6.91876C17.2616 7.0988 17.5058 7.19994 17.7604 7.19994C18.015 7.19994 18.2592 7.0988 18.4393 6.91876C18.6193 6.73873 18.7204 6.49455 18.7204 6.23994C18.7204 5.98533 18.6193 5.74115 18.4393 5.56112C18.2592 5.38108 18.015 5.27994 17.7604 5.27994ZM12.0004 6.71994C9.09005 6.71994 6.72043 9.08956 6.72043 11.9999C6.72043 14.9103 9.09005 17.2799 12.0004 17.2799C14.9108 17.2799 17.2804 14.9103 17.2804 11.9999C17.2804 9.08956 14.9108 6.71994 12.0004 6.71994ZM12.0004 7.67994C14.392 7.67994 16.3204 9.60839 16.3204 11.9999C16.3204 14.3915 14.392 16.3199 12.0004 16.3199C9.60887 16.3199 7.68043 14.3915 7.68043 11.9999C7.68043 9.60839 9.60887 7.67994 12.0004 7.67994Z" fill="#EDEDED"></path>
  </symbol>
  <symbol fill="none" xmlns="http://www.w3.org/2000/svg" viewBox="0 0 24 24" id="location">
    <path d="M12 14.1699C9.87 14.1699 8.13 12.4399 8.13 10.2999C8.13 8.15994 9.87 6.43994 12 6.43994C14.13 6.43994 15.87 8.16994 15.87 10.3099C15.87 12.4499 14.13 14.1699 12 14.1699ZM12 7.93994C10.7 7.93994 9.63 8.99994 9.63 10.3099C9.63 11.6199 10.69 12.6799 12 12.6799C13.31 12.6799 14.37 11.6199 14.37 10.3099C14.37 8.99994 13.3 7.93994 12 7.93994Z" fill="#353535"></path>
    <path d="M12.0001 22.76C10.5201 22.76 9.03005 22.2 7.87005 21.09C4.92005 18.25 1.66005 13.72 2.89005 8.33C4.00005 3.44 8.27005 1.25 12.0001 1.25C12.0001 1.25 12.0001 1.25 12.0101 1.25C15.7401 1.25 20.0101 3.44 21.1201 8.34C22.3401 13.73 19.0801 18.25 16.1301 21.09C14.9701 22.2 13.4801 22.76 12.0001 22.76ZM12.0001 2.75C9.09005 2.75 5.35005 4.3 4.36005 8.66C3.28005 13.37 6.24005 17.43 8.92005 20C10.6501 21.67 13.3601 21.67 15.0901 20C17.7601 17.43 20.7201 13.37 19.6601 8.66C18.6601 4.3 14.9101 2.75 12.0001 2.75Z" fill="#353535"></path>
  </symbol>
  <symbol fill="none" xmlns="http://www.w3.org/2000/svg" viewBox="0 0 24 24" id="logout">
    <path d="M15.24 22.27H15.11C10.67 22.27 8.53002 20.52 8.16002 16.6C8.12002 16.19 8.42002 15.82 8.84002 15.78C9.24002 15.74 9.62002 16.05 9.66002 16.46C9.95002 19.6 11.43 20.77 15.12 20.77H15.25C19.32 20.77 20.76 19.33 20.76 15.26V8.73998C20.76 4.66998 19.32 3.22998 15.25 3.22998H15.12C11.41 3.22998 9.93002 4.41998 9.66002 7.61998C9.61002 8.02998 9.26002 8.33998 8.84002 8.29998C8.42002 8.26998 8.12001 7.89998 8.15001 7.48998C8.49001 3.50998 10.64 1.72998 15.11 1.72998H15.24C20.15 1.72998 22.25 3.82998 22.25 8.73998V15.26C22.25 20.17 20.15 22.27 15.24 22.27Z" fill="#353535"></path>
    <path d="M15.0001 12.75H3.62012C3.21012 12.75 2.87012 12.41 2.87012 12C2.87012 11.59 3.21012 11.25 3.62012 11.25H15.0001C15.4101 11.25 15.7501 11.59 15.7501 12C15.7501 12.41 15.4101 12.75 15.0001 12.75Z" fill="#353535"></path>
    <path d="M5.84994 16.1C5.65994 16.1 5.46994 16.03 5.31994 15.88L1.96994 12.53C1.67994 12.24 1.67994 11.76 1.96994 11.47L5.31994 8.11997C5.60994 7.82997 6.08994 7.82997 6.37994 8.11997C6.66994 8.40997 6.66994 8.88997 6.37994 9.17997L3.55994 12L6.37994 14.82C6.66994 15.11 6.66994 15.59 6.37994 15.88C6.23994 16.03 6.03994 16.1 5.84994 16.1Z" fill="#353535"></path>
  </symbol>
  <symbol fill="none" xmlns="http://www.w3.org/2000/svg" viewBox="0 0 24 24" id="menu">
    <path d="M21 7.75H3C2.59 7.75 2.25 7.41 2.25 7C2.25 6.59 2.59 6.25 3 6.25H21C21.41 6.25 21.75 6.59 21.75 7C21.75 7.41 21.41 7.75 21 7.75Z" fill="#353535"></path>
    <path d="M21 12.75H3C2.59 12.75 2.25 12.41 2.25 12C2.25 11.59 2.59 11.25 3 11.25H21C21.41 11.25 21.75 11.59 21.75 12C21.75 12.41 21.41 12.75 21 12.75Z" fill="#353535"></path>
    <path d="M21 17.75H3C2.59 17.75 2.25 17.41 2.25 17C2.25 16.59 2.59 16.25 3 16.25H21C21.41 16.25 21.75 16.59 21.75 17C21.75 17.41 21.41 17.75 21 17.75Z" fill="#353535"></path>
  </symbol>
  <symbol fill="none" xmlns="http://www.w3.org/2000/svg" viewBox="0 0 24 24" id="menu-board">
    <path d="M16.3799 22.75H3.23993C2.28993 22.75 1.40993 22.31 0.839932 21.54C0.259932 20.76 0.0899403 19.78 0.37994 18.85L4.58993 5.31995C4.96993 4.05995 6.12995 3.19995 7.44995 3.19995H19.7499C20.9599 3.19995 22.0499 3.92004 22.5099 5.04004C22.7599 5.62004 22.8099 6.28005 22.6599 6.93005L19.2899 20.46C18.9699 21.81 17.7699 22.75 16.3799 22.75ZM7.45993 4.70996C6.80993 4.70996 6.21993 5.14002 6.02993 5.77002L1.81994 19.3C1.67994 19.77 1.75993 20.26 2.05993 20.66C2.33993 21.04 2.77994 21.26 3.24994 21.26H16.3899C17.08 21.26 17.6799 20.79 17.8399 20.12L21.2099 6.57996C21.2899 6.24996 21.2699 5.92 21.1399 5.63C20.9 5.06 20.3699 4.69995 19.7599 4.69995H7.45993V4.70996Z" fill="#353535"></path>
    <path d="M20.78 22.75H16C15.59 22.75 15.25 22.41 15.25 22C15.25 21.59 15.59 21.25 16 21.25H20.78C21.19 21.25 21.57 21.08 21.85 20.78C22.13 20.48 22.27 20.08 22.24 19.67L21.25 6.05002C21.22 5.64002 21.53 5.27997 21.94 5.24997C22.35 5.22997 22.71 5.52991 22.74 5.93991L23.73 19.56C23.79 20.38 23.5 21.2 22.94 21.8C22.39 22.41 21.6 22.75 20.78 22.75Z" fill="#353535"></path>
    <path d="M9.67977 7.12996C9.61977 7.12996 9.55977 7.11994 9.49977 7.10994C9.09977 7.00994 8.84979 6.6099 8.94979 6.1999L9.98976 1.87996C10.0898 1.47996 10.4898 1.22991 10.8998 1.32991C11.2998 1.42991 11.5498 1.82994 11.4498 2.23994L10.4098 6.56001C10.3298 6.90001 10.0198 7.12996 9.67977 7.12996Z" fill="#353535"></path>
    <path d="M16.3799 7.13999C16.3299 7.13999 16.2699 7.13997 16.2199 7.11997C15.8199 7.02997 15.56 6.62995 15.64 6.22995L16.5799 1.88999C16.6699 1.47999 17.0699 1.23003 17.4699 1.31003C17.8699 1.39003 18.1299 1.79992 18.0499 2.19992L17.1099 6.54001C17.0399 6.90001 16.7299 7.13999 16.3799 7.13999Z" fill="#353535"></path>
    <path d="M15.7002 12.75H7.7002C7.2902 12.75 6.9502 12.41 6.9502 12C6.9502 11.59 7.2902 11.25 7.7002 11.25H15.7002C16.1102 11.25 16.4502 11.59 16.4502 12C16.4502 12.41 16.1102 12.75 15.7002 12.75Z" fill="#353535"></path>
    <path d="M14.7002 16.75H6.7002C6.2902 16.75 5.9502 16.41 5.9502 16C5.9502 15.59 6.2902 15.25 6.7002 15.25H14.7002C15.1102 15.25 15.4502 15.59 15.4502 16C15.4502 16.41 15.1102 16.75 14.7002 16.75Z" fill="#353535"></path>
  </symbol>
  <symbol fill="none" xmlns="http://www.w3.org/2000/svg" viewBox="0 0 24 24" id="menu-board-white">
    <path d="M16.3799 22.75H3.23993C2.28993 22.75 1.40993 22.31 0.839932 21.54C0.259932 20.76 0.0899403 19.78 0.37994 18.85L4.58993 5.31995C4.96993 4.05995 6.12995 3.19995 7.44995 3.19995H19.7499C20.9599 3.19995 22.0499 3.92004 22.5099 5.04004C22.7599 5.62004 22.8099 6.28005 22.6599 6.93005L19.2899 20.46C18.9699 21.81 17.7699 22.75 16.3799 22.75ZM7.45993 4.70996C6.80993 4.70996 6.21993 5.14002 6.02993 5.77002L1.81994 19.3C1.67994 19.77 1.75993 20.26 2.05993 20.66C2.33993 21.04 2.77994 21.26 3.24994 21.26H16.3899C17.0799 21.26 17.6799 20.79 17.8399 20.12L21.2099 6.57996C21.2899 6.24996 21.2699 5.92 21.1399 5.63C20.8999 5.06 20.3699 4.69995 19.7599 4.69995H7.45993V4.70996Z" fill="white"></path>
    <path d="M20.78 22.75H16C15.59 22.75 15.25 22.41 15.25 22C15.25 21.59 15.59 21.25 16 21.25H20.78C21.19 21.25 21.57 21.08 21.85 20.78C22.13 20.48 22.27 20.08 22.24 19.67L21.25 6.05002C21.22 5.64002 21.53 5.27997 21.94 5.24997C22.35 5.22997 22.71 5.52991 22.74 5.93991L23.73 19.56C23.79 20.38 23.5 21.2 22.94 21.8C22.39 22.41 21.6 22.75 20.78 22.75Z" fill="white"></path>
    <path d="M9.67977 7.12996C9.61977 7.12996 9.55977 7.11994 9.49977 7.10994C9.09977 7.00994 8.84979 6.6099 8.94979 6.1999L9.98976 1.87996C10.0898 1.47996 10.4898 1.22991 10.8998 1.32991C11.2998 1.42991 11.5498 1.82994 11.4498 2.23994L10.4098 6.56001C10.3298 6.90001 10.0198 7.12996 9.67977 7.12996Z" fill="white"></path>
    <path d="M16.3799 7.13999C16.3299 7.13999 16.2699 7.13997 16.2199 7.11997C15.8199 7.02997 15.56 6.62995 15.64 6.22995L16.5799 1.88999C16.6699 1.47999 17.0699 1.23003 17.4699 1.31003C17.8699 1.39003 18.1299 1.79992 18.0499 2.19992L17.1099 6.54001C17.0399 6.90001 16.7299 7.13999 16.3799 7.13999Z" fill="white"></path>
    <path d="M15.7002 12.75H7.7002C7.2902 12.75 6.9502 12.41 6.9502 12C6.9502 11.59 7.2902 11.25 7.7002 11.25H15.7002C16.1102 11.25 16.4502 11.59 16.4502 12C16.4502 12.41 16.1102 12.75 15.7002 12.75Z" fill="white"></path>
    <path d="M14.7002 16.75H6.7002C6.2902 16.75 5.9502 16.41 5.9502 16C5.9502 15.59 6.2902 15.25 6.7002 15.25H14.7002C15.1102 15.25 15.4502 15.59 15.4502 16C15.4502 16.41 15.1102 16.75 14.7002 16.75Z" fill="white"></path>
  </symbol>
  <symbol fill="none" xmlns="http://www.w3.org/2000/svg" viewBox="0 0 24 24" id="minus">
    <path d="M18 12.75H6C5.59 12.75 5.25 12.41 5.25 12C5.25 11.59 5.59 11.25 6 11.25H18C18.41 11.25 18.75 11.59 18.75 12C18.75 12.41 18.41 12.75 18 12.75Z" fill="#353535"></path>
  </symbol>
  <symbol fill="none" xmlns="http://www.w3.org/2000/svg" viewBox="0 0 24 24" id="profile-2user">
    <path d="M9.16006 11.62C9.13006 11.62 9.11006 11.62 9.08006 11.62C9.03006 11.61 8.96006 11.61 8.90006 11.62C6.00006 11.53 3.81006 9.25 3.81006 6.44C3.81006 3.58 6.14006 1.25 9.00006 1.25C11.8601 1.25 14.1901 3.58 14.1901 6.44C14.1801 9.25 11.9801 11.53 9.19006 11.62C9.18006 11.62 9.17006 11.62 9.16006 11.62ZM9.00006 2.75C6.97006 2.75 5.31006 4.41 5.31006 6.44C5.31006 8.44 6.87006 10.05 8.86006 10.12C8.92006 10.11 9.05006 10.11 9.18006 10.12C11.1401 10.03 12.6801 8.42 12.6901 6.44C12.6901 4.41 11.0301 2.75 9.00006 2.75Z" fill="#353535"></path>
    <path d="M16.5401 11.75C16.5101 11.75 16.4801 11.75 16.4501 11.74C16.0401 11.78 15.6201 11.49 15.5801 11.08C15.5401 10.67 15.7901 10.3 16.2001 10.25C16.3201 10.24 16.4501 10.24 16.5601 10.24C18.0201 10.16 19.1601 8.96 19.1601 7.49C19.1601 5.97 17.9301 4.74 16.4101 4.74C16.0001 4.75 15.6601 4.41 15.6601 4C15.6601 3.59 16.0001 3.25 16.4101 3.25C18.7501 3.25 20.6601 5.16 20.6601 7.5C20.6601 9.8 18.8601 11.66 16.5701 11.75C16.5601 11.75 16.5501 11.75 16.5401 11.75Z" fill="#353535"></path>
    <path d="M9.1701 22.55C7.2101 22.55 5.2401 22.05 3.7501 21.05C2.3601 20.13 1.6001 18.87 1.6001 17.5C1.6001 16.13 2.3601 14.86 3.7501 13.93C6.7501 11.94 11.6101 11.94 14.5901 13.93C15.9701 14.85 16.7401 16.11 16.7401 17.48C16.7401 18.85 15.9801 20.12 14.5901 21.05C13.0901 22.05 11.1301 22.55 9.1701 22.55ZM4.5801 15.19C3.6201 15.83 3.1001 16.65 3.1001 17.51C3.1001 18.36 3.6301 19.18 4.5801 19.81C7.0701 21.48 11.2701 21.48 13.7601 19.81C14.7201 19.17 15.2401 18.35 15.2401 17.49C15.2401 16.64 14.7101 15.82 13.7601 15.19C11.2701 13.53 7.0701 13.53 4.5801 15.19Z" fill="#353535"></path>
    <path d="M18.3402 20.75C17.9902 20.75 17.6802 20.51 17.6102 20.15C17.5302 19.74 17.7902 19.35 18.1902 19.26C18.8202 19.13 19.4002 18.88 19.8502 18.53C20.4202 18.1 20.7302 17.56 20.7302 16.99C20.7302 16.42 20.4202 15.88 19.8602 15.46C19.4202 15.12 18.8702 14.88 18.2202 14.73C17.8202 14.64 17.5602 14.24 17.6502 13.83C17.7402 13.43 18.1402 13.17 18.5502 13.26C19.4102 13.45 20.1602 13.79 20.7702 14.26C21.7002 14.96 22.2302 15.95 22.2302 16.99C22.2302 18.03 21.6902 19.02 20.7602 19.73C20.1402 20.21 19.3602 20.56 18.5002 20.73C18.4402 20.75 18.3902 20.75 18.3402 20.75Z" fill="#353535"></path>
  </symbol>
  <symbol fill="none" xmlns="http://www.w3.org/2000/svg" viewBox="0 0 24 24" id="search-normal">
    <path d="M11.5 21.75C5.85 21.75 1.25 17.15 1.25 11.5C1.25 5.85 5.85 1.25 11.5 1.25C17.15 1.25 21.75 5.85 21.75 11.5C21.75 17.15 17.15 21.75 11.5 21.75ZM11.5 2.75C6.67 2.75 2.75 6.68 2.75 11.5C2.75 16.32 6.67 20.25 11.5 20.25C16.33 20.25 20.25 16.32 20.25 11.5C20.25 6.68 16.33 2.75 11.5 2.75Z" fill="#353535"></path>
    <path d="M21.9999 22.75C21.8099 22.75 21.6199 22.68 21.4699 22.53L19.4699 20.53C19.1799 20.24 19.1799 19.76 19.4699 19.47C19.7599 19.18 20.2399 19.18 20.5299 19.47L22.5299 21.47C22.8199 21.76 22.8199 22.24 22.5299 22.53C22.3799 22.68 22.1899 22.75 21.9999 22.75Z" fill="#353535"></path>
  </symbol>
  <symbol fill="none" xmlns="http://www.w3.org/2000/svg" viewBox="0 0 24 24" id="search-normal-primary">
    <path d="M11 20.75C5.62 20.75 1.25 16.38 1.25 11C1.25 5.62 5.62 1.25 11 1.25C16.38 1.25 20.75 5.62 20.75 11C20.75 16.38 16.38 20.75 11 20.75ZM11 2.75C6.45 2.75 2.75 6.45 2.75 11C2.75 15.55 6.45 19.25 11 19.25C15.55 19.25 19.25 15.55 19.25 11C19.25 6.45 15.55 2.75 11 2.75Z" fill="#417F56"></path>
    <path d="M20.1601 22.79C20.0801 22.79 20.0001 22.78 19.9301 22.77C19.4601 22.71 18.6101 22.39 18.1301 20.96C17.8801 20.21 17.9701 19.46 18.3801 18.89C18.7901 18.32 19.4801 18 20.2701 18C21.2901 18 22.0901 18.39 22.4501 19.08C22.8101 19.77 22.7101 20.65 22.1401 21.5C21.4301 22.57 20.6601 22.79 20.1601 22.79ZM19.5601 20.49C19.7301 21.01 19.9701 21.27 20.1301 21.29C20.2901 21.31 20.5901 21.12 20.9001 20.67C21.1901 20.24 21.2101 19.93 21.1401 19.79C21.0701 19.65 20.7901 19.5 20.2701 19.5C19.9601 19.5 19.7301 19.6 19.6001 19.77C19.4801 19.94 19.4601 20.2 19.5601 20.49Z" fill="#417F56"></path>
  </symbol>
  <symbol fill="none" xmlns="http://www.w3.org/2000/svg" viewBox="0 0 24 24" id="shopping-cart">
    <path d="M18.19 17.75H7.53999C6.54999 17.75 5.59999 17.33 4.92999 16.6C4.25999 15.87 3.92 14.89 4 13.9L4.83 3.94C4.86 3.63 4.74999 3.33001 4.53999 3.10001C4.32999 2.87001 4.04 2.75 3.73 2.75H2C1.59 2.75 1.25 2.41 1.25 2C1.25 1.59 1.59 1.25 2 1.25H3.74001C4.47001 1.25 5.15999 1.56 5.64999 2.09C5.91999 2.39 6.12 2.74 6.23 3.13H18.72C19.73 3.13 20.66 3.53 21.34 4.25C22.01 4.98 22.35 5.93 22.27 6.94L21.73 14.44C21.62 16.27 20.02 17.75 18.19 17.75ZM6.28 4.62L5.5 14.02C5.45 14.6 5.64 15.15 6.03 15.58C6.42 16.01 6.95999 16.24 7.53999 16.24H18.19C19.23 16.24 20.17 15.36 20.25 14.32L20.79 6.82001C20.83 6.23001 20.64 5.67001 20.25 5.26001C19.86 4.84001 19.32 4.60999 18.73 4.60999H6.28V4.62Z" fill="#353535"></path>
    <path d="M16.25 22.75C15.15 22.75 14.25 21.85 14.25 20.75C14.25 19.65 15.15 18.75 16.25 18.75C17.35 18.75 18.25 19.65 18.25 20.75C18.25 21.85 17.35 22.75 16.25 22.75ZM16.25 20.25C15.97 20.25 15.75 20.47 15.75 20.75C15.75 21.03 15.97 21.25 16.25 21.25C16.53 21.25 16.75 21.03 16.75 20.75C16.75 20.47 16.53 20.25 16.25 20.25Z" fill="#353535"></path>
    <path d="M8.25 22.75C7.15 22.75 6.25 21.85 6.25 20.75C6.25 19.65 7.15 18.75 8.25 18.75C9.35 18.75 10.25 19.65 10.25 20.75C10.25 21.85 9.35 22.75 8.25 22.75ZM8.25 20.25C7.97 20.25 7.75 20.47 7.75 20.75C7.75 21.03 7.97 21.25 8.25 21.25C8.53 21.25 8.75 21.03 8.75 20.75C8.75 20.47 8.53 20.25 8.25 20.25Z" fill="#353535"></path>
    <path d="M21 8.75H9C8.59 8.75 8.25 8.41 8.25 8C8.25 7.59 8.59 7.25 9 7.25H21C21.41 7.25 21.75 7.59 21.75 8C21.75 8.41 21.41 8.75 21 8.75Z" fill="#353535"></path>
  </symbol>
  <symbol fill="none" xmlns="http://www.w3.org/2000/svg" viewBox="0 0 24 24" id="shopping-cart-primary">
    <path d="M18.19 17.75H7.53999C6.54999 17.75 5.59999 17.33 4.92999 16.6C4.25999 15.87 3.92 14.89 4 13.9L4.83 3.94C4.86 3.63 4.74999 3.33001 4.53999 3.10001C4.32999 2.87001 4.04 2.75 3.73 2.75H2C1.59 2.75 1.25 2.41 1.25 2C1.25 1.59 1.59 1.25 2 1.25H3.74001C4.47001 1.25 5.15999 1.56 5.64999 2.09C5.91999 2.39 6.12 2.74 6.23 3.13H18.72C19.73 3.13 20.66 3.53 21.34 4.25C22.01 4.98 22.35 5.93 22.27 6.94L21.73 14.44C21.62 16.27 20.02 17.75 18.19 17.75ZM6.28 4.62L5.5 14.02C5.45 14.6 5.64 15.15 6.03 15.58C6.42 16.01 6.95999 16.24 7.53999 16.24H18.19C19.23 16.24 20.17 15.36 20.25 14.32L20.79 6.82001C20.83 6.23001 20.64 5.67001 20.25 5.26001C19.86 4.84001 19.32 4.60999 18.73 4.60999H6.28V4.62Z" fill="#417F56"></path>
    <path d="M16.25 22.75C15.15 22.75 14.25 21.85 14.25 20.75C14.25 19.65 15.15 18.75 16.25 18.75C17.35 18.75 18.25 19.65 18.25 20.75C18.25 21.85 17.35 22.75 16.25 22.75ZM16.25 20.25C15.97 20.25 15.75 20.47 15.75 20.75C15.75 21.03 15.97 21.25 16.25 21.25C16.53 21.25 16.75 21.03 16.75 20.75C16.75 20.47 16.53 20.25 16.25 20.25Z" fill="#417F56"></path>
    <path d="M8.25 22.75C7.15 22.75 6.25 21.85 6.25 20.75C6.25 19.65 7.15 18.75 8.25 18.75C9.35 18.75 10.25 19.65 10.25 20.75C10.25 21.85 9.35 22.75 8.25 22.75ZM8.25 20.25C7.97 20.25 7.75 20.47 7.75 20.75C7.75 21.03 7.97 21.25 8.25 21.25C8.53 21.25 8.75 21.03 8.75 20.75C8.75 20.47 8.53 20.25 8.25 20.25Z" fill="#417F56"></path>
    <path d="M21 8.75H9C8.59 8.75 8.25 8.41 8.25 8C8.25 7.59 8.59 7.25 9 7.25H21C21.41 7.25 21.75 7.59 21.75 8C21.75 8.41 21.41 8.75 21 8.75Z" fill="#417F56"></path>
  </symbol>
  <symbol fill="none" xmlns="http://www.w3.org/2000/svg" viewBox="0 0 24 24" id="star">
    <path d="M17.66 22.67C17.13 22.67 16.45 22.5 15.6 22L12.61 20.23C12.3 20.05 11.7 20.05 11.4 20.23L8.4 22C6.63 23.05 5.59 22.63 5.12 22.29C4.66 21.95 3.94 21.08 4.41 19.08L5.12 16.01C5.2 15.69 5.04 15.14 4.8 14.9L2.32 12.42C1.08 11.18 1.18 10.12 1.35 9.60001C1.52 9.08001 2.06 8.16001 3.78 7.87001L6.97 7.34001C7.27 7.29001 7.7 6.97001 7.83 6.70001L9.6 3.17001C10.4 1.56001 11.45 1.32001 12 1.32001C12.55 1.32001 13.6 1.56001 14.4 3.17001L16.16 6.69001C16.3 6.96001 16.73 7.28001 17.03 7.33001L20.22 7.86001C21.95 8.15001 22.49 9.07001 22.65 9.59001C22.81 10.11 22.91 11.17 21.68 12.41L19.2 14.9C18.96 15.14 18.81 15.68 18.88 16.01L19.59 19.08C20.05 21.08 19.34 21.95 18.88 22.29C18.63 22.47 18.23 22.67 17.66 22.67ZM12 18.59C12.49 18.59 12.98 18.71 13.37 18.94L16.36 20.71C17.23 21.23 17.78 21.23 17.99 21.08C18.2 20.93 18.35 20.4 18.13 19.42L17.42 16.35C17.23 15.52 17.54 14.45 18.14 13.84L20.62 11.36C21.11 10.87 21.33 10.39 21.23 10.06C21.12 9.73001 20.66 9.46001 19.98 9.35001L16.79 8.82001C16.02 8.69001 15.18 8.07001 14.83 7.37001L13.07 3.85001C12.75 3.21001 12.35 2.83001 12 2.83001C11.65 2.83001 11.25 3.21001 10.94 3.85001L9.17 7.37001C8.82 8.07001 7.98 8.69001 7.21 8.82001L4.03 9.35001C3.35 9.46001 2.89 9.73001 2.78 10.06C2.67 10.39 2.9 10.88 3.39 11.36L5.87 13.84C6.47 14.44 6.78 15.52 6.59 16.35L5.88 19.42C5.65 20.41 5.81 20.93 6.02 21.08C6.23 21.23 6.77 21.22 7.65 20.71L10.64 18.94C11.02 18.71 11.51 18.59 12 18.59Z" fill="#353535"></path>
  </symbol>
  <symbol fill="none" xmlns="http://www.w3.org/2000/svg" viewBox="0 0 24 24" id="Telegram">
    <path d="M21.3008 2.87348C21.067 2.88374 20.8394 2.9488 20.6342 3.03098C20.4311 3.11261 19.2617 3.61173 17.5348 4.35005C15.808 5.08836 13.5632 6.04981 11.338 7.00317C6.88753 8.9099 2.51421 10.786 2.51421 10.786L2.54609 10.7738C2.54609 10.7738 2.28214 10.862 2.01452 11.0485C1.88072 11.1417 1.73677 11.2621 1.6189 11.4375C1.50103 11.613 1.41486 11.8617 1.44734 12.1247C1.5614 13.0486 2.5189 13.3107 2.5189 13.3107L2.52265 13.3125L6.79577 14.775C6.90472 15.1385 8.09183 19.1006 8.35296 19.9397C8.49718 20.4036 8.63216 20.6712 8.77296 20.8538C8.84342 20.9451 8.91726 21.0158 8.9989 21.0675C9.03134 21.0881 9.06545 21.1035 9.09921 21.1172H9.10109C9.10523 21.1191 9.10914 21.1192 9.11327 21.121L9.10202 21.1182C9.10987 21.1213 9.11761 21.1267 9.12546 21.1294C9.1407 21.1348 9.15003 21.1346 9.16952 21.1388C9.65891 21.3097 10.0639 20.9925 10.0639 20.9925L10.0808 20.9794L12.7058 18.5447L16.9658 21.8663L17.0192 21.8907C17.7649 22.2217 18.4392 22.037 18.8126 21.7332C19.1861 21.4293 19.333 21.0375 19.333 21.0375L19.3489 20.9963L22.4792 4.68098C22.5593 4.31597 22.5707 4.00046 22.4951 3.71536C22.4196 3.43025 22.2361 3.18241 22.0058 3.04504C21.7755 2.90768 21.5346 2.86323 21.3008 2.87348ZM21.3261 3.84942C21.421 3.84502 21.4914 3.85588 21.5136 3.86911C21.5358 3.88234 21.5457 3.8806 21.567 3.96098C21.5883 4.04137 21.5999 4.21068 21.5417 4.47567L21.5398 4.4813L18.4273 20.7019C18.42 20.7183 18.3551 20.8683 18.207 20.9888C18.056 21.1117 17.8879 21.2077 17.442 21.0207L12.7836 17.3879L12.6523 17.2847L12.6495 17.2875L11.2564 16.2422L19.0855 7.0313C19.1456 6.9607 19.184 6.87419 19.1961 6.78223C19.2081 6.69026 19.1932 6.59678 19.1533 6.51309C19.1133 6.42939 19.05 6.35906 18.9709 6.3106C18.8918 6.26215 18.8004 6.23764 18.7076 6.24005C18.617 6.2424 18.529 6.27035 18.4536 6.32067L7.12484 13.8732L2.84515 12.4079C2.84515 12.4079 2.42018 12.1714 2.39984 12.0066C2.39871 11.9975 2.39369 12.0057 2.41577 11.9729C2.43786 11.94 2.49337 11.8845 2.56296 11.836C2.70215 11.739 2.86109 11.6804 2.86109 11.6804L2.87702 11.6747L2.89296 11.6682C2.89296 11.6682 7.26651 9.79199 11.7167 7.88536C13.9418 6.93204 16.1862 5.9713 17.9126 5.23317C19.6386 4.49523 20.8858 3.96406 20.9914 3.92161C21.1116 3.87347 21.2311 3.85382 21.3261 3.84942ZM16.1342 9.02067L10.197 16.006L10.1942 16.0088C10.1849 16.02 10.1762 16.0315 10.168 16.0435C10.1585 16.0565 10.1498 16.0699 10.1417 16.0838C10.1084 16.1404 10.087 16.2033 10.0789 16.2685C10.0789 16.2697 10.0789 16.271 10.0789 16.2722L9.30546 19.7504C9.2926 19.7128 9.2836 19.699 9.26984 19.6547V19.6538C9.02418 18.8645 7.90417 15.1278 7.74921 14.611L16.1342 9.02067ZM10.8673 17.1507L11.9342 17.9513L10.3667 19.4044L10.8673 17.1507Z" fill="#EDEDED"></path>
  </symbol>
  <symbol fill="none" xmlns="http://www.w3.org/2000/svg" viewBox="0 0 24 24" id="tick-circle">
    <path d="M12 22.75C6.07 22.75 1.25 17.93 1.25 12C1.25 6.07 6.07 1.25 12 1.25C17.93 1.25 22.75 6.07 22.75 12C22.75 17.93 17.93 22.75 12 22.75ZM12 2.75C6.9 2.75 2.75 6.9 2.75 12C2.75 17.1 6.9 21.25 12 21.25C17.1 21.25 21.25 17.1 21.25 12C21.25 6.9 17.1 2.75 12 2.75Z" fill="#353535"></path>
    <path d="M10.58 15.58C10.38 15.58 10.19 15.5 10.05 15.36L7.22 12.53C6.93 12.24 6.93 11.76 7.22 11.47C7.51 11.18 7.99 11.18 8.28 11.47L10.58 13.77L15.72 8.62998C16.01 8.33998 16.49 8.33998 16.78 8.62998C17.07 8.91998 17.07 9.39998 16.78 9.68998L11.11 15.36C10.97 15.5 10.78 15.58 10.58 15.58Z" fill="#353535"></path>
  </symbol>
  <symbol fill="none" xmlns="http://www.w3.org/2000/svg" viewBox="0 0 24 24" id="twitter">
    <g clip-path="url(#clip0_1952_48009)">
      <path d="M16.425 2.625C13.5543 2.625 11.22 4.95937 11.22 7.83C11.22 8.0025 11.2631 8.17125 11.28 8.34C7.73059 8.00063 4.59184 6.29063 2.45996 3.675C2.36059 3.54937 2.20684 3.48187 2.04559 3.49313C1.88621 3.50437 1.74371 3.59625 1.66496 3.735C1.21684 4.50563 0.959962 5.3925 0.959962 6.345C0.959962 7.49813 1.37246 8.55375 2.00996 9.42C1.88621 9.36562 1.75121 9.33563 1.63496 9.27C1.48684 9.19125 1.30871 9.195 1.16434 9.28125C1.01996 9.3675 0.931837 9.52313 0.929962 9.69V9.75C0.929962 11.5181 1.84496 13.0538 3.19496 13.995C3.17996 13.9931 3.16496 13.9987 3.14996 13.995C2.98496 13.9669 2.81809 14.025 2.70746 14.1506C2.59684 14.2762 2.56121 14.4506 2.60996 14.61C3.14621 16.2769 4.51496 17.55 6.20996 18.015C4.85996 18.8175 3.29434 19.29 1.60496 19.29C1.23934 19.29 0.888712 19.2712 0.539962 19.23C0.314962 19.2 0.0993369 19.3312 0.0243371 19.545C-0.052538 19.7587 0.0318371 19.9969 0.224962 20.115C2.39059 21.5044 4.96121 22.32 7.72496 22.32C12.2043 22.32 15.7181 20.4487 18.075 17.775C20.4318 15.1012 21.66 11.6287 21.66 8.385C21.66 8.24813 21.6487 8.115 21.645 7.98C22.5243 7.30687 23.31 6.5175 23.925 5.595C24.0468 5.41687 24.0337 5.17875 23.8931 5.01375C23.7543 4.84875 23.52 4.79813 23.325 4.89C23.0775 5.00063 22.7887 5.01187 22.53 5.1C22.8712 4.64437 23.1637 4.15313 23.34 3.6C23.4 3.41063 23.3343 3.2025 23.1787 3.07875C23.0231 2.95687 22.8056 2.94187 22.635 3.045C21.8156 3.53063 20.9081 3.87187 19.95 4.08C19.02 3.21 17.7956 2.625 16.425 2.625ZM16.425 3.585C17.6493 3.585 18.7556 4.10813 19.53 4.935C19.6462 5.055 19.8168 5.10563 19.98 5.07C20.6062 4.94625 21.2006 4.76437 21.78 4.53C21.4462 4.98 21.0337 5.36437 20.55 5.655C20.3306 5.76187 20.2275 6.015 20.3081 6.24563C20.3868 6.47437 20.6268 6.6075 20.865 6.555C21.345 6.49687 21.7725 6.30187 22.23 6.18C21.8193 6.62437 21.3693 7.02563 20.88 7.38C20.7468 7.4775 20.6737 7.635 20.685 7.8C20.6925 7.995 20.7 8.18813 20.7 8.385C20.7 11.385 19.5487 14.6419 17.355 17.13C15.1612 19.6181 11.94 21.36 7.72496 21.36C5.81059 21.36 4.00309 20.9363 2.36996 20.19C4.39496 20.0344 6.26246 19.3181 7.76996 18.135C7.92746 18.0094 7.98934 17.7994 7.92559 17.6081C7.86184 17.4169 7.68559 17.2856 7.48496 17.28C5.90246 17.2519 4.57684 16.3313 3.86996 15.03C3.89621 15.03 3.91871 15.03 3.94496 15.03C4.41934 15.03 4.88809 14.97 5.32496 14.85C5.53496 14.7881 5.67934 14.5931 5.67184 14.3737C5.66434 14.1544 5.50871 13.9669 5.29496 13.92C3.58684 13.575 2.30621 12.1838 2.00996 10.455C2.49371 10.6219 2.98871 10.7531 3.52496 10.77C3.74434 10.7831 3.94309 10.6462 4.01059 10.4381C4.07809 10.23 3.99559 10.0013 3.80996 9.885C2.66996 9.12187 1.91996 7.8225 1.91996 6.345C1.91996 5.7975 2.06246 5.295 2.24996 4.815C4.64996 7.44937 8.00996 9.19875 11.805 9.39C11.955 9.3975 12.1012 9.33562 12.1987 9.22125C12.2962 9.105 12.3337 8.95125 12.3 8.805C12.2268 8.49375 12.18 8.16375 12.18 7.83C12.18 5.47875 14.0737 3.585 16.425 3.585Z" fill="#EDEDED"></path>
    </g>
    <defs>
      <clipPath id="clip0_1952_48009">
        <rect width="24" height="24" fill="white"></rect>
      </clipPath>
    </defs>
  </symbol>
  <symbol fill="none" xmlns="http://www.w3.org/2000/svg" viewBox="0 0 24 24" id="user">
    <path d="M12 12.75C8.83 12.75 6.25 10.17 6.25 7C6.25 3.83 8.83 1.25 12 1.25C15.17 1.25 17.75 3.83 17.75 7C17.75 10.17 15.17 12.75 12 12.75ZM12 2.75C9.66 2.75 7.75 4.66 7.75 7C7.75 9.34 9.66 11.25 12 11.25C14.34 11.25 16.25 9.34 16.25 7C16.25 4.66 14.34 2.75 12 2.75Z" fill="#353535"></path>
    <path d="M20.5901 22.75C20.1801 22.75 19.8401 22.41 19.8401 22C19.8401 18.55 16.3202 15.75 12.0002 15.75C7.68015 15.75 4.16016 18.55 4.16016 22C4.16016 22.41 3.82016 22.75 3.41016 22.75C3.00016 22.75 2.66016 22.41 2.66016 22C2.66016 17.73 6.85015 14.25 12.0002 14.25C17.1502 14.25 21.3401 17.73 21.3401 22C21.3401 22.41 21.0001 22.75 20.5901 22.75Z" fill="#353535"></path>
  </symbol>
  <symbol fill="none" xmlns="http://www.w3.org/2000/svg" viewBox="0 0 24 24" id="user-primary">
    <path d="M12 12.75C8.83 12.75 6.25 10.17 6.25 7C6.25 3.83 8.83 1.25 12 1.25C15.17 1.25 17.75 3.83 17.75 7C17.75 10.17 15.17 12.75 12 12.75ZM12 2.75C9.66 2.75 7.75 4.66 7.75 7C7.75 9.34 9.66 11.25 12 11.25C14.34 11.25 16.25 9.34 16.25 7C16.25 4.66 14.34 2.75 12 2.75Z" fill="#417F56"></path>
    <path d="M20.5901 22.75C20.1801 22.75 19.8401 22.41 19.8401 22C19.8401 18.55 16.3202 15.75 12.0002 15.75C7.68015 15.75 4.16016 18.55 4.16016 22C4.16016 22.41 3.82016 22.75 3.41016 22.75C3.00016 22.75 2.66016 22.41 2.66016 22C2.66016 17.73 6.85015 14.25 12.0002 14.25C17.1502 14.25 21.3401 17.73 21.3401 22C21.3401 22.41 21.0001 22.75 20.5901 22.75Z" fill="#417F56"></path>
  </symbol>
  <symbol fill="none" xmlns="http://www.w3.org/2000/svg" viewBox="0 0 24 24" id="user-white">
    <path d="M12 12.75C8.83 12.75 6.25 10.17 6.25 7C6.25 3.83 8.83 1.25 12 1.25C15.17 1.25 17.75 3.83 17.75 7C17.75 10.17 15.17 12.75 12 12.75ZM12 2.75C9.66 2.75 7.75 4.66 7.75 7C7.75 9.34 9.66 11.25 12 11.25C14.34 11.25 16.25 9.34 16.25 7C16.25 4.66 14.34 2.75 12 2.75Z" fill="white"></path>
    <path d="M20.5901 22.75C20.1801 22.75 19.8401 22.41 19.8401 22C19.8401 18.55 16.3202 15.75 12.0002 15.75C7.68015 15.75 4.16016 18.55 4.16016 22C4.16016 22.41 3.82016 22.75 3.41016 22.75C3.00016 22.75 2.66016 22.41 2.66016 22C2.66016 17.73 6.85015 14.25 12.0002 14.25C17.1502 14.25 21.3401 17.73 21.3401 22C21.3401 22.41 21.0001 22.75 20.5901 22.75Z" fill="white"></path>
  </symbol>
  <symbol fill="none" xmlns="http://www.w3.org/2000/svg" viewBox="0 0 24 24" id="wallet-2">
    <path d="M13 9.75H7C6.59 9.75 6.25 9.41 6.25 9C6.25 8.59 6.59 8.25 7 8.25H13C13.41 8.25 13.75 8.59 13.75 9C13.75 9.41 13.41 9.75 13 9.75Z" fill="#353535"></path>
    <path d="M19.0399 14.7999C17.5299 14.7999 16.2499 13.6799 16.1299 12.2399C16.0499 11.4099 16.3499 10.5999 16.9499 10.0099C17.4499 9.48995 18.1599 9.19995 18.9099 9.19995H20.9999C21.9899 9.22995 22.7499 10.0099 22.7499 10.9699V13.03C22.7499 13.99 21.9899 14.7699 21.0299 14.7999H19.0399ZM20.9699 10.7H18.9199C18.5699 10.7 18.2499 10.8299 18.0199 11.0699C17.7299 11.3499 17.5899 11.7299 17.6299 12.1099C17.6799 12.7699 18.3199 13.2999 19.0399 13.2999H20.9999C21.1299 13.2999 21.2499 13.18 21.2499 13.03V10.9699C21.2499 10.8199 21.1299 10.71 20.9699 10.7Z" fill="#353535"></path>
    <path d="M16 21.25H7C3.56 21.25 1.25 18.94 1.25 15.5V8.5C1.25 5.42 3.14998 3.19001 6.09998 2.82001C6.36998 2.78001 6.68 2.75 7 2.75H16C16.24 2.75 16.55 2.76 16.87 2.81C19.82 3.15 21.75 5.39 21.75 8.5V9.95001C21.75 10.36 21.41 10.7 21 10.7H18.92C18.57 10.7 18.25 10.83 18.02 11.07L18.01 11.08C17.73 11.35 17.6 11.72 17.63 12.1C17.68 12.76 18.32 13.29 19.04 13.29H21C21.41 13.29 21.75 13.63 21.75 14.04V15.49C21.75 18.94 19.44 21.25 16 21.25ZM7 4.25C6.76 4.25 6.52999 4.26999 6.29999 4.29999C4.09999 4.57999 2.75 6.18 2.75 8.5V15.5C2.75 18.08 4.42 19.75 7 19.75H16C18.58 19.75 20.25 18.08 20.25 15.5V14.8H19.04C17.53 14.8 16.25 13.68 16.13 12.24C16.05 11.42 16.35 10.6 16.95 10.02C17.47 9.49002 18.17 9.20001 18.92 9.20001H20.25V8.5C20.25 6.16 18.88 4.54998 16.66 4.28998C16.42 4.24998 16.21 4.25 16 4.25H7Z" fill="#353535"></path>
  </symbol>
</svg>